<svg xmlns="http://www.w3.org/2000/svg" version="1.1" xmlns:xlink="http://www.w3.org/1999/xlink" xmlns:svgjs="http://svgjs.dev/svgjs" width="70" height="70" viewBox="0 0 1500 1500"><g transform="matrix(1,0,0,1,-0.21332335329316265,-0.21332335329350371)"><svg viewBox="0 0 334 334" data-background-color="#f6efd1" preserveAspectRatio="xMidYMid meet" height="1500" width="1500" xmlns="http://www.w3.org/2000/svg" xmlns:xlink="http://www.w3.org/1999/xlink"><g id="tight-bounds" transform="matrix(1,0,0,1,0.04749999999998522,0.04750000000001364)"><svg viewBox="0 0 333.90454557049503 333.90454557049503" height="333.90454557049503" width="333.90454557049503"><g><svg></svg></g><g><svg viewBox="0 0 333.90454557049503 333.90454557049503" height="333.90454557049503" width="333.90454557049503"><g><path d="M0 166.952c0-92.205 74.747-166.952 166.952-166.952 92.205 0 166.952 74.747 166.953 166.952 0 92.205-74.747 166.952-166.953 166.953-92.205 0-166.952-74.747-166.952-166.953zM166.952 323.555c86.49 0 156.603-70.114 156.603-156.603 0-86.49-70.114-156.603-156.603-156.603-86.49 0-156.603 70.114-156.603 156.603 0 86.49 70.114 156.603 156.603 156.603z" data-fill-palette-color="tertiary" fill="#f30f06" stroke="transparent"></path><ellipse rx="160.27418187383762" ry="160.27418187383762" cx="166.95227278524752" cy="166.95227278524752" fill="#f30f06" stroke="transparent" stroke-width="0" fill-opacity="1" data-fill-palette-color="tertiary"></ellipse></g><g transform="matrix(1,0,0,1,126.73601709208035,71.17305217166896)"><svg viewBox="0 0 80.43251138633433 191.55844122715712" height="191.55844122715712" width="80.43251138633433"><g><svg viewBox="0 0 80.43251138633433 191.55844122715712" height="191.55844122715712" width="80.43251138633433"><g><svg viewBox="0 0 134.2594353468931 319.75289235415767" height="191.55844122715712" width="80.43251138633433"><g transform="matrix(1,0,0,1,0,128.19445112700058)"><svg viewBox="0 0 134.2594353468931 191.55844122715712" height="191.55844122715712" width="134.2594353468931"><g id="textblocktransform"><svg viewBox="0 0 134.2594353468931 191.55844122715712" height="191.55844122715712" width="134.2594353468931" id="textblock"><g><svg viewBox="0 0 134.2594353468931 191.55844122715712" height="191.55844122715712" width="134.2594353468931"><g transform="matrix(1,0,0,1,0,0)"><svg width="134.2594353468931" viewBox="1.4 -33.8 23.900000000000002 34.099999999999994" height="191.55844122715712" data-palette-color="#ffffff"><path d="M13.65 0.3Q9.2 0.3 6.08-1.63 2.95-3.55 1.7-6.65L1.7-6.65Q1.4-7.15 1.4-7.65L1.4-7.65Q1.4-8.35 1.9-8.83 2.4-9.3 3.1-9.3L3.1-9.3Q4.35-9.3 4.75-8L4.75-8Q5.6-5.65 8.08-4.17 10.55-2.7 13.65-2.7L13.65-2.7Q16.1-2.7 18.03-3.55 19.95-4.4 21.03-5.85 22.1-7.3 22.1-9.1L22.1-9.1Q22.1-11.4 20.2-13.1 18.3-14.8 13.75-16.05L13.75-16.05Q3.3-18.9 3.3-25.35L3.3-25.35Q3.3-27.8 4.67-29.7 6.05-31.6 8.68-32.7 11.3-33.8 14.8-33.8L14.8-33.8Q19.75-33.8 22.5-31.93 25.25-30.05 25.25-26.9L25.25-26.9Q25.25-26.25 24.8-25.78 24.35-25.3 23.7-25.3L23.7-25.3Q23.1-25.3 22.68-25.7 22.25-26.1 22.2-26.65L22.2-26.65Q21.95-28.55 19.93-29.75 17.9-30.95 14.65-30.95L14.65-30.95Q10.75-30.95 8.63-29.5 6.5-28.05 6.5-25.5L6.5-25.5Q6.5-23.35 8.47-21.85 10.45-20.35 14.55-19.2L14.55-19.2Q19.95-17.7 22.63-15.28 25.3-12.85 25.3-9.35L25.3-9.35Q25.3-6.65 23.7-4.42 22.1-2.2 19.4-0.95 16.7 0.3 13.65 0.3L13.65 0.3Z" opacity="1" transform="matrix(1,0,0,1,0,0)" fill="#ffffff" class="wordmark-text-0" data-fill-palette-color="quaternary" id="text-0"></path></svg></g></svg></g></svg></g></svg></g><g transform="matrix(1,0,0,1,25.643552151256586,0)"><svg viewBox="0 0 82.97233104437993 82.97210055585823" height="82.97210055585823" width="82.97233104437993"><g><svg xmlns="http://www.w3.org/2000/svg" xmlns:xlink="http://www.w3.org/1999/xlink" version="1.1" x="0" y="0" viewBox="4.537124995366481 5.0009999999999994 89.99950000926752 89.99924999999998" enable-background="new 0 0 100 100" xml:space="preserve" height="82.97210055585823" width="82.97233104437993" class="icon-icon-0" data-fill-palette-color="quaternary" id="icon-0"><path d="M86.229 50.001L86.95 49.278C97.065 39.163 97.066 22.704 86.95 12.588S60.375 2.472 50.259 12.588L49.537 13.309 48.816 12.588C38.7 2.472 22.24 2.472 12.124 12.588S2.008 39.163 12.125 49.278L12.846 50.001 12.125 50.722C2.008 60.838 2.008 77.296 12.124 87.414 22.241 97.529 38.701 97.529 48.816 87.414L49.537 86.692 50.259 87.414C60.375 97.529 76.834 97.529 86.95 87.414 97.066 77.296 97.065 60.838 86.95 50.722zM53.453 15.783C61.807 7.429 75.4 7.429 83.753 15.783S92.107 37.731 83.754 46.084L59.431 70.407C57.569 72.27 57.115 74.48 59.322 76.713L60.153 77.519C64.813 82.179 72.395 82.179 77.055 77.519S81.715 65.276 77.056 60.616L76.334 59.894 78.085 58.144 78.807 58.866C84.434 64.491 84.434 73.646 78.807 79.271 73.182 84.896 64.026 84.896 58.401 79.271 58.401 79.271 58.047 78.973 57.568 78.491 57.128 78.044 52.745 73.592 57.68 68.656L82.002 44.333C89.391 36.945 89.391 24.924 82.002 17.535 74.614 10.148 62.594 10.148 55.206 17.536L54.483 18.257 52.731 16.506zM73.86 74.325C70.961 77.222 66.245 77.222 63.346 74.325L62.625 73.603 73.138 63.09 73.86 63.81C76.758 66.71 76.758 71.425 73.86 74.325M15.319 15.783C23.673 7.429 37.267 7.429 45.621 15.783L69.942 40.104 68.19 41.858 43.868 17.535C36.479 10.147 24.46 10.147 17.072 17.535 9.683 24.923 9.683 36.944 17.072 44.332L17.793 45.054 16.041 46.806 15.319 46.085C6.965 37.731 6.965 24.138 15.319 15.783M62.626 26.398L63.347 25.676C66.245 22.778 70.961 22.778 73.861 25.676 76.758 28.574 76.758 33.289 73.861 36.19L73.139 36.911zM24.337 58.297L22.018 60.615C17.357 65.275 17.358 72.858 22.018 77.518 26.677 82.178 34.26 82.178 38.92 77.518L39.642 76.796C43.203 73.237 38.917 69.692 36.855 67.629L35.512 66.275 29.129 59.892 30.881 58.142 39.371 66.631 40.041 67.303C46.283 73.542 41.878 78.063 41.394 78.547L40.672 79.269C35.046 84.897 25.892 84.894 20.265 79.269 14.64 73.644 14.64 64.489 20.266 58.862L44.59 34.54 46.341 36.294 34.23 48.403zM25.934 63.091L36.447 73.601 35.725 74.324C32.826 77.221 28.111 77.223 25.213 74.324S22.315 66.709 25.213 63.811zM49.536 39.488L60.048 50.001 49.536 60.512 39.023 50.001zM38.921 22.483C34.261 17.821 26.678 17.823 22.019 22.483 17.359 27.141 17.358 34.725 22.019 39.385L22.74 40.107 20.988 41.858 20.266 41.137C14.64 35.51 14.641 26.356 20.266 20.729 25.893 15.104 35.047 15.103 40.673 20.729L64.996 45.052 63.244 46.804zM36.447 26.399L25.934 36.911 25.213 36.19C22.314 33.291 22.314 28.575 25.212 25.676S32.826 22.778 35.725 25.678zM83.753 84.218C75.4 92.572 61.807 92.572 53.453 84.218L52.544 83.405C52.346 83.206 50.671 81.542 49.437 78.971 48.286 81.401 46.758 83.067 46.343 83.496L45.621 84.218C37.267 92.572 23.673 92.572 15.319 84.218S6.965 62.271 15.319 53.915L39.642 29.594 41.394 31.347 17.072 55.669C9.683 63.058 9.683 75.078 17.072 82.466 24.46 89.855 36.48 89.855 43.868 82.466L44.629 81.704C46.547 79.713 47.995 76.64 48.102 73.475 48.102 73.382 48.109 73.289 48.111 73.198 48.133 70.724 47.323 68.217 45.251 66.143L41.391 62.283 41.02 61.888 34.078 54.947 35.83 53.194 45.523 62.887 46.336 63.715C47.774 65.154 48.795 66.586 49.497 67.984 50.202 66.636 51.202 65.254 52.599 63.856L52.733 63.708 77.057 39.386C81.716 34.726 81.716 27.142 77.056 22.482 72.397 17.822 64.814 17.822 60.154 22.482L59.432 23.205 57.681 21.453 58.402 20.73C64.027 15.105 73.183 15.105 78.808 20.73 84.435 26.357 84.435 35.511 78.808 41.136L54.482 65.46 53.715 66.23C48.847 71.098 50.759 78.069 54.319 81.627L55.205 82.466C62.593 89.855 74.613 89.855 82.001 82.466 89.39 75.078 89.39 63.058 82.001 55.669L81.279 54.947 83.031 53.194 83.753 53.917C92.107 62.271 92.107 75.863 83.753 84.218" fill="#ffffff" data-fill-palette-color="quaternary"></path></svg></g></svg></g><g></g></svg></g></svg></g></svg></g></svg></g><defs></defs></svg><rect width="333.90454557049503" height="333.90454557049503" fill="none" stroke="none" visibility="hidden"></rect></g></svg></g></svg>